<svg xmlns="http://www.w3.org/2000/svg" width="174.819" height="155.683" viewBox="0 0 174.819 155.683">
  <g id="rotated-right-arrow-svgrepo-com" transform="matrix(-0.819, 0.574, -0.574, -0.819, 258.939, 147.397)" opacity="0.4">
    <g id="Group_20575" data-name="Group 20575" transform="translate(-0.001 119.66)">
      <path id="Path_22994" data-name="Path 22994" d="M3.214,164.808c28.129.605,54.444,12.71,82.573,14.223,8.167.3,16.333-.605,22.685-4.237-11.494-2.118-22.382-6.052-30.549-13.618-8.772-7.867-9.679-22.393-4.235-32.682,5.142-9.684,18.148-9.986,27.222-7.565,21.476,5.144,35.993,30.866,23.9,49.022,13.308.908,26.617,0,39.623.606a2.124,2.124,0,1,1-.3,4.236c-13.308.908-29.339,2.118-45.067,1.21-.907.606-1.815,1.514-2.722,2.118-32.061,22.393-78.944-5.75-113.425-6.657C-1.02,171.162-1.02,164.5,3.214,164.808Zm118.869-7.263c3.327-12.407-7.562-23-17.543-28.143s-24.2-5.144-27.524,7.868c-3.932,15.131,9.074,24.208,21.475,28.143a84.726,84.726,0,0,0,16.938,3.631A21.962,21.962,0,0,0,122.083,157.544Z" transform="translate(18.905 -119.66)" fill="#66d7ff"/>
      <path id="Path_22995" data-name="Path 22995" d="M318.642,196.915c4.234-2.724,8.166-5.447,12.1-8.17,3.327-2.421,6.654-5.144,10.586-6.052,3.025-.908,6.049,3.631,3.327,5.749-3.327,2.421-6.957,4.539-10.284,6.657-2.42,1.514-4.839,3.329-6.956,4.842,2.42,1.21,4.839,2.118,7.259,3.329,1.815.908,3.932,1.816,5.747,2.724a3.65,3.65,0,0,1,1.513,1.513c.907,1.21.3.606,0,.3,1.209.908,1.209,3.934-.908,3.631h0a4.481,4.481,0,0,1-2.117.3,58.786,58.786,0,0,1-6.654-2.421,105.654,105.654,0,0,1-13.309-6.052C316.525,201.455,316.525,198.126,318.642,196.915Z" transform="translate(-317.09 -151.466)" fill="#66d7ff"/>
    </g>
  </g>
</svg>
